<svg width="1539pt" height="322pt" viewBox="0.00 0.00 1539.00 322.00" xmlns="http://www.w3.org/2000/svg" xmlns:xlink="http://www.w3.org/1999/xlink">
<g id="graph0" class="graph" transform="scale(1 1) rotate(0) translate(4 318.12)">
<title>MicroserviceArchitecture</title>
<polygon fill="white" stroke="none" points="-4,4 -4,-318.12 1535.46,-318.12 1535.46,4 -4,4"/>
<g id="clust1" class="cluster">
<title>cluster_services</title>
<polygon fill="#f0f8ff" stroke="black" points="203.41,-14.32 203.41,-264.32 1523.46,-264.32 1523.46,-14.32 203.41,-14.32"/>
<text xml:space="preserve" text-anchor="middle" x="863.44" y="-247.72" font-family="Times,serif" font-size="14.00">Core Microservices</text>
</g>
<!-- IAM -->
<g id="node1" class="node">
<title>IAM</title>
<path fill="#e0ffe0" stroke="#a0d995" d="M433.12,-115.12C433.12,-115.12 223.41,-115.12 223.41,-115.12 217.41,-115.12 211.41,-109.12 211.41,-103.12 211.41,-103.12 211.41,-85.52 211.41,-85.52 211.41,-79.52 217.41,-73.52 223.41,-73.52 223.41,-73.52 433.12,-73.52 433.12,-73.52 439.12,-73.52 445.12,-79.52 445.12,-85.52 445.12,-85.52 445.12,-103.12 445.12,-103.12 445.12,-109.12 439.12,-115.12 433.12,-115.12"/>
<text xml:space="preserve" text-anchor="middle" x="328.27" y="-98.52" font-family="Times,serif" font-size="14.00">Identity &amp; Access Management (IAM)</text>
<text xml:space="preserve" text-anchor="middle" x="328.27" y="-81.72" font-family="Times,serif" font-size="14.00">(FastAPI)</text>
</g>
<!-- IAM_DB -->
<g id="node2" class="node">
<title>IAM_DB</title>
<path fill="#c8e6c9" stroke="black" d="M795.49,-55.04C795.49,-56.85 771.42,-58.32 741.79,-58.32 712.16,-58.32 688.09,-56.85 688.09,-55.04 688.09,-55.04 688.09,-25.59 688.09,-25.59 688.09,-23.78 712.16,-22.32 741.79,-22.32 771.42,-22.32 795.49,-23.78 795.49,-25.59 795.49,-25.59 795.49,-55.04 795.49,-55.04"/>
<path fill="none" stroke="black" d="M795.49,-55.04C795.49,-53.24 771.42,-51.77 741.79,-51.77 712.16,-51.77 688.09,-53.24 688.09,-55.04"/>
<text xml:space="preserve" text-anchor="middle" x="741.79" y="-36.12" font-family="Times,serif" font-size="14.00">PostgreSQL DB</text>
</g>
<!-- IAM&#45;&gt;IAM_DB -->
<g id="edge1" class="edge">
<title>IAM-&gt;IAM_DB</title>
<path fill="none" stroke="black" stroke-dasharray="5,2" d="M445.3,-75.08C451.33,-74.19 457.3,-73.33 463.12,-72.52 536.08,-62.35 620.14,-52.92 676.49,-46.93"/>
<polygon fill="black" stroke="black" points="676.64,-50.43 686.22,-45.9 675.91,-43.47 676.64,-50.43"/>
<text xml:space="preserve" text-anchor="middle" x="550.01" y="-76.72" font-family="Times,serif" font-size="14.00">Stores Users, Roles</text>
</g>
<!-- Article -->
<g id="node3" class="node">
<title>Article</title>
<path fill="#fff0e0" stroke="#fec394" d="M1130.13,-114.12C1130.13,-114.12 1022.68,-114.12 1022.68,-114.12 1016.68,-114.12 1010.68,-108.12 1010.68,-102.12 1010.68,-102.12 1010.68,-84.52 1010.68,-84.52 1010.68,-78.52 1016.68,-72.52 1022.68,-72.52 1022.68,-72.52 1130.13,-72.52 1130.13,-72.52 1136.13,-72.52 1142.13,-78.52 1142.13,-84.52 1142.13,-84.52 1142.13,-102.12 1142.13,-102.12 1142.13,-108.12 1136.13,-114.12 1130.13,-114.12"/>
<text xml:space="preserve" text-anchor="middle" x="1076.4" y="-97.52" font-family="Times,serif" font-size="14.00">Article Management</text>
<text xml:space="preserve" text-anchor="middle" x="1076.4" y="-80.72" font-family="Times,serif" font-size="14.00">(FastAPI)</text>
</g>
<!-- IAM&#45;&gt;Article -->
<g id="edge7" class="edge">
<title>IAM-&gt;Article</title>
<path fill="none" stroke="black" stroke-width="2" d="M445.44,-94.16C599.71,-93.95 867.9,-93.59 998.93,-93.42"/>
<polygon fill="black" stroke="black" stroke-width="2" points="997.39,-96.92 1007.39,-93.41 997.38,-89.92 997.39,-96.92"/>
<text xml:space="preserve" text-anchor="middle" x="741.79" y="-98.07" font-family="Times,serif" font-size="14.00" fill="#006400">JWT Verification (Public Key)</text>
</g>
<!-- Review -->
<g id="node5" class="node">
<title>Review</title>
<path fill="#e0eaff" stroke="#a8c1f0" d="M797.46,-231.12C797.46,-231.12 686.12,-231.12 686.12,-231.12 680.12,-231.12 674.12,-225.12 674.12,-219.12 674.12,-219.12 674.12,-201.52 674.12,-201.52 674.12,-195.52 680.12,-189.52 686.12,-189.52 686.12,-189.52 797.46,-189.52 797.46,-189.52 803.46,-189.52 809.46,-195.52 809.46,-201.52 809.46,-201.52 809.46,-219.12 809.46,-219.12 809.46,-225.12 803.46,-231.12 797.46,-231.12"/>
<text xml:space="preserve" text-anchor="middle" x="741.79" y="-214.52" font-family="Times,serif" font-size="14.00">Review Management</text>
<text xml:space="preserve" text-anchor="middle" x="741.79" y="-197.72" font-family="Times,serif" font-size="14.00">(FastAPI)</text>
</g>
<!-- IAM&#45;&gt;Review -->
<g id="edge8" class="edge">
<title>IAM-&gt;Review</title>
<path fill="none" stroke="black" stroke-width="2" d="M445.53,-105.02C519.21,-113.71 606.21,-128.08 636.9,-149.52 649.9,-158.6 642.66,-170.24 654.9,-180.32 657.77,-182.68 660.83,-184.85 664.03,-186.87"/>
<polygon fill="black" stroke="black" stroke-width="2" points="660.9,-189.13 671.34,-190.94 664.31,-183.01 660.9,-189.13"/>
<text xml:space="preserve" text-anchor="middle" x="550.01" y="-153.72" font-family="Times,serif" font-size="14.00" fill="#006400">JWT Verification (Public Key)</text>
</g>
<!-- Article_DB -->
<g id="node4" class="node">
<title>Article_DB</title>
<path fill="#ffe0c8" stroke="black" d="M1515.46,-150.04C1515.46,-151.85 1470.92,-153.32 1416.09,-153.32 1361.26,-153.32 1316.72,-151.85 1316.72,-150.04 1316.72,-150.04 1316.72,-120.59 1316.72,-120.59 1316.72,-118.78 1361.26,-117.32 1416.09,-117.32 1470.92,-117.32 1515.46,-118.78 1515.46,-120.59 1515.46,-120.59 1515.46,-150.04 1515.46,-150.04"/>
<path fill="none" stroke="black" d="M1515.46,-150.04C1515.46,-148.24 1470.92,-146.77 1416.09,-146.77 1361.26,-146.77 1316.72,-148.24 1316.72,-150.04"/>
<text xml:space="preserve" text-anchor="middle" x="1416.09" y="-131.12" font-family="Times,serif" font-size="14.00">MongoDB: Article Management</text>
</g>
<!-- Article&#45;&gt;Article_DB -->
<g id="edge2" class="edge">
<title>Article-&gt;Article_DB</title>
<path fill="none" stroke="#cc6600" stroke-width="2" d="M1142.51,-101.41C1188.5,-107.13 1251.24,-114.94 1304.94,-121.62"/>
<polygon fill="#cc6600" stroke="#cc6600" stroke-width="2" points="1302.9,-124.89 1313.25,-122.65 1303.76,-117.94 1302.9,-124.89"/>
<text xml:space="preserve" text-anchor="middle" x="1247.22" y="-124.73" font-family="Times,serif" font-size="14.00">CRUD</text>
</g>
<!-- Redis_Cluster -->
<g id="node8" class="node">
<title>Redis_Cluster</title>
<polygon fill="#ffefd5" stroke="#ffcc00" points="1495.25,-314.12 1336.93,-314.12 1336.93,-310.12 1332.93,-310.12 1332.93,-306.12 1336.93,-306.12 1336.93,-280.52 1332.93,-280.52 1332.93,-276.52 1336.93,-276.52 1336.93,-272.52 1495.25,-272.52 1495.25,-314.12"/>
<polyline fill="none" stroke="#ffcc00" points="1336.93,-310.12 1340.93,-310.12 1340.93,-306.12 1336.93,-306.12"/>
<polyline fill="none" stroke="#ffcc00" points="1336.93,-280.52 1340.93,-280.52 1340.93,-276.52 1336.93,-276.52"/>
<text xml:space="preserve" text-anchor="middle" x="1416.09" y="-297.52" font-family="Times,serif" font-size="14.00">Distributed Redis Cluster</text>
<text xml:space="preserve" text-anchor="middle" x="1416.09" y="-280.72" font-family="Times,serif" font-size="14.00">(Shared Cache)</text>
</g>
<!-- Article&#45;&gt;Redis_Cluster -->
<g id="edge9" class="edge">
<title>Article-&gt;Redis_Cluster</title>
<path fill="none" stroke="#ffcc00" stroke-dasharray="5,2" d="M1142.47,-111.33C1154.63,-115.98 1166.9,-121.61 1177.72,-128.32 1209.67,-148.11 1273.28,-218.85 1298.72,-246.52 1307.23,-255.76 1306.11,-261.59 1316.72,-268.32 1319.81,-270.27 1323.05,-272.08 1326.38,-273.74"/>
<polygon fill="#ffcc00" stroke="#ffcc00" points="1324.71,-276.83 1335.27,-277.7 1327.56,-270.43 1324.71,-276.83"/>
<text xml:space="preserve" text-anchor="middle" x="1247.22" y="-250.72" font-family="Times,serif" font-size="14.00">Cache Read/Write</text>
</g>
<!-- Review&#45;&gt;Article -->
<g id="edge11" class="edge">
<title>Review-&gt;Article</title>
<path fill="none" stroke="#cc0000" stroke-width="2" d="M809.95,-189.52C816.42,-186.73 822.77,-183.66 828.68,-180.32 837.74,-175.18 837.54,-170.31 846.68,-165.32 894.52,-139.19 953.27,-120.95 999.24,-109.37"/>
<polygon fill="#cc0000" stroke="#cc0000" stroke-width="2" points="998.53,-113.15 1007.4,-107.36 996.86,-106.35 998.53,-113.15"/>
</g>
<!-- Review_DB -->
<g id="node6" class="node">
<title>Review_DB</title>
<path fill="#c8d7f8" stroke="black" d="M1177.72,-223.04C1177.72,-224.85 1132.31,-226.32 1076.4,-226.32 1020.5,-226.32 975.08,-224.85 975.08,-223.04 975.08,-223.04 975.08,-193.59 975.08,-193.59 975.08,-191.78 1020.5,-190.32 1076.4,-190.32 1132.31,-190.32 1177.72,-191.78 1177.72,-193.59 1177.72,-193.59 1177.72,-223.04 1177.72,-223.04"/>
<path fill="none" stroke="black" d="M1177.72,-223.04C1177.72,-221.24 1132.31,-219.77 1076.4,-219.77 1020.5,-219.77 975.08,-221.24 975.08,-223.04"/>
<text xml:space="preserve" text-anchor="middle" x="1076.4" y="-204.12" font-family="Times,serif" font-size="14.00">MongoDB: Review Management</text>
</g>
<!-- Review&#45;&gt;Review_DB -->
<g id="edge3" class="edge">
<title>Review-&gt;Review_DB</title>
<path fill="none" stroke="#0066cc" stroke-width="2" d="M809.7,-209.91C853.7,-209.65 912.37,-209.3 963.38,-208.99"/>
<polygon fill="#0066cc" stroke="#0066cc" stroke-width="2" points="961.81,-212.5 971.79,-208.94 961.77,-205.5 961.81,-212.5"/>
<text xml:space="preserve" text-anchor="middle" x="901.88" y="-213.87" font-family="Times,serif" font-size="14.00">CRUD</text>
</g>
<!-- Review&#45;&gt;Redis_Cluster -->
<g id="edge10" class="edge">
<title>Review-&gt;Redis_Cluster</title>
<path fill="none" stroke="#ffcc00" stroke-dasharray="5,2" d="M809.72,-224.01C821.98,-226.29 834.69,-228.5 846.68,-230.32 1015.14,-255.83 1213.17,-275.44 1325.42,-285.61"/>
<polygon fill="#ffcc00" stroke="#ffcc00" points="1324.9,-289.07 1335.17,-286.48 1325.53,-282.1 1324.9,-289.07"/>
<text xml:space="preserve" text-anchor="middle" x="1076.4" y="-274.82" font-family="Times,serif" font-size="14.00">Cache Read/Write</text>
</g>
<!-- Worker -->
<g id="node7" class="node">
<title>Worker</title>
<path fill="#f8e0ff" stroke="#d0a8e0" d="M795.13,-171.12C795.13,-171.12 688.45,-171.12 688.45,-171.12 682.45,-171.12 676.45,-165.12 676.45,-159.12 676.45,-159.12 676.45,-141.52 676.45,-141.52 676.45,-135.52 682.45,-129.52 688.45,-129.52 688.45,-129.52 795.13,-129.52 795.13,-129.52 801.13,-129.52 807.13,-135.52 807.13,-141.52 807.13,-141.52 807.13,-159.12 807.13,-159.12 807.13,-165.12 801.13,-171.12 795.13,-171.12"/>
<text xml:space="preserve" text-anchor="middle" x="741.79" y="-154.52" font-family="Times,serif" font-size="14.00">Background Worker</text>
<text xml:space="preserve" text-anchor="middle" x="741.79" y="-137.72" font-family="Times,serif" font-size="14.00">(Python Cron Job)</text>
</g>
<!-- Worker&#45;&gt;Article_DB -->
<g id="edge13" class="edge">
<title>Worker-&gt;Article_DB</title>
<path fill="none" stroke="#4b0082" stroke-dasharray="5,2" d="M807.43,-150.01C911.11,-149.35 1120.97,-147.34 1298.72,-141.32 1301.6,-141.22 1304.53,-141.11 1307.47,-141"/>
<ellipse fill="#4b0082" stroke="#4b0082" cx="1311.88" cy="-140.83" rx="4" ry="4"/>
<text xml:space="preserve" text-anchor="middle" x="1076.4" y="-152.51" font-family="Times,serif" font-size="14.00">Read/Write Avg. Ratings</text>
</g>
<!-- Worker&#45;&gt;Review_DB -->
<g id="edge12" class="edge">
<title>Worker-&gt;Review_DB</title>
<path fill="none" stroke="#4b0082" stroke-dasharray="5,2" d="M807.32,-161.57C853.13,-169.56 915.68,-180.46 968.84,-189.73"/>
<ellipse fill="#4b0082" stroke="#4b0082" cx="973.2" cy="-190.49" rx="4" ry="4"/>
<text xml:space="preserve" text-anchor="middle" x="901.88" y="-190.42" font-family="Times,serif" font-size="14.00">Read Reviews Data</text>
</g>
<!-- Client -->
<g id="node9" class="node">
<title>Client</title>
<polygon fill="#f0f0f0" stroke="black" points="96.08,-115.12 93.08,-119.12 72.08,-119.12 69.08,-115.12 0,-115.12 0,-73.52 96.08,-73.52 96.08,-115.12"/>
<text xml:space="preserve" text-anchor="middle" x="48.04" y="-98.52" font-family="Times,serif" font-size="14.00">Public Client</text>
<text xml:space="preserve" text-anchor="middle" x="48.04" y="-81.72" font-family="Times,serif" font-size="14.00">(Web/Mobile)</text>
</g>
<!-- Client&#45;&gt;IAM -->
<g id="edge4" class="edge">
<title>Client-&gt;IAM</title>
<path fill="none" stroke="black" d="M96.55,-94.32C125.11,-94.32 162.93,-94.32 199.67,-94.32"/>
<polygon fill="black" stroke="black" points="199.51,-97.82 209.51,-94.32 199.51,-90.82 199.51,-97.82"/>
<text xml:space="preserve" text-anchor="middle" x="153.75" y="-98.52" font-family="Times,serif" font-size="14.00" fill="#006400">1. Login/Auth</text>
</g>
<!-- Client&#45;&gt;Article -->
<g id="edge5" class="edge">
<title>Client-&gt;Article</title>
<path fill="none" stroke="black" d="M96.29,-80.89C218.13,-48.09 552.79,30.29 828.68,-13.32 894.36,-23.7 966.35,-48.72 1015.53,-68.04"/>
<polygon fill="black" stroke="black" points="1013.98,-71.19 1024.57,-71.63 1016.57,-64.69 1013.98,-71.19"/>
<text xml:space="preserve" text-anchor="middle" x="550.01" y="-14.9" font-family="Times,serif" font-size="14.00" fill="#8b0000">2. CRUD Articles</text>
</g>
<!-- Client&#45;&gt;Review -->
<g id="edge6" class="edge">
<title>Client-&gt;Review</title>
<path fill="none" stroke="black" d="M96.39,-110.58C102.31,-112.33 108.31,-113.96 114.08,-115.32 308.9,-161.21 543.24,-189.85 662.6,-202.58"/>
<polygon fill="black" stroke="black" points="661.97,-206.03 672.28,-203.6 662.71,-199.07 661.97,-206.03"/>
<text xml:space="preserve" text-anchor="middle" x="328.27" y="-179.59" font-family="Times,serif" font-size="14.00" fill="#00008b">3. Post/View Reviews</text>
</g>
</g>
</svg>